<?xml version="1.0" encoding="utf-8"?>
<!-- Generator: Adobe Illustrator 25.4.1, SVG Export Plug-In . SVG Version: 6.00 Build 0)  -->
<svg version="1.1" id="laravel_x5F_lang_x5F_logo" xmlns="http://www.w3.org/2000/svg" xmlns:xlink="http://www.w3.org/1999/xlink"
	 x="0px" y="0px" viewBox="0 0 444 453" style="enable-background:new 0 0 444 453;" xml:space="preserve">
<style type="text/css">
	.st0{fill:#FF2D20;}
	.st1{fill:#434144;}
</style>
<path id="laravel_x5F_logo" class="st0" d="M357.4,149.4c0-0.1-0.1-0.2-0.1-0.4c-0.1-0.2-0.2-0.5-0.3-0.7c-0.1-0.1-0.2-0.3-0.3-0.4
	c-0.1-0.2-0.2-0.4-0.4-0.5c-0.1-0.1-0.3-0.2-0.4-0.3c-0.2-0.1-0.3-0.3-0.5-0.4l0,0l0,0l-52.5-30.2c-1.4-0.8-3-0.8-4.4,0l-52.4,30.2
	l0,0l0,0c-0.2,0.1-0.3,0.2-0.5,0.4c-0.1,0.1-0.3,0.2-0.4,0.3c-0.1,0.1-0.3,0.3-0.4,0.5c-0.1,0.1-0.2,0.2-0.3,0.4
	c-0.1,0.2-0.2,0.4-0.3,0.7c-0.1,0.1-0.1,0.2-0.1,0.4c-0.1,0.4-0.1,0.8-0.1,1.1v57.4l-43.7,25.2V120.9c0-0.4-0.1-0.8-0.1-1.1
	c0-0.1-0.1-0.2-0.1-0.4c-0.1-0.2-0.2-0.5-0.3-0.7c-0.1-0.1-0.2-0.3-0.3-0.4c-0.1-0.2-0.2-0.4-0.4-0.5c-0.1-0.1-0.3-0.2-0.4-0.3
	c-0.2-0.1-0.3-0.3-0.5-0.4l0,0l0,0l-52.4-30.2c-1.4-0.8-3-0.8-4.4,0l-52.4,30.2l0,0l0,0c-0.2,0.1-0.3,0.2-0.5,0.4
	c-0.1,0.1-0.3,0.2-0.4,0.3c-0.2,0.2-0.3,0.3-0.4,0.5c-0.1,0.1-0.2,0.2-0.3,0.4c-0.1,0.2-0.2,0.4-0.3,0.7c-0.1,0.1-0.1,0.2-0.2,0.4
	c-0.1,0.4-0.2,0.8-0.2,1.1v179.7c0,1.6,0.8,3,2.2,3.8l104.9,60.4c0.2,0.1,0.5,0.2,0.7,0.3c0.1,0,0.2,0.1,0.3,0.1
	c0.4,0.1,0.7,0.1,1.1,0.1s0.8,0,1.1-0.1c0.1,0,0.2-0.1,0.3-0.1c0.3-0.1,0.5-0.2,0.8-0.3l104.9-60.4c1.4-0.8,2.2-2.2,2.2-3.8v-57.4
	l50.3-28.9c1.4-0.8,2.2-2.2,2.2-3.8v-59.9C357.5,150.2,357.5,149.8,357.4,149.4z M195.8,295.5l-43.6-24.7l45.8-26.4l0,0l50.3-28.9
	l43.7,25.1l-32,18.3L195.8,295.5z M296.3,183.3v49.8L278,222.5l-25.4-14.6v-49.8l18.4,10.6L296.3,183.3z M300.7,125.4l43.7,25.2
	l-43.7,25.2L257,150.6L300.7,125.4z M166.1,252.7l-18.4,10.6V153.6l25.4-14.6l18.4-10.6v109.7L166.1,252.7z M143.3,95.7l43.7,25.2
	L143.3,146l-43.7-25.2L143.3,95.7z M95.2,128.4l18.4,10.6l25.4,14.6v117.2v0v0c0,0.2,0.1,0.3,0.1,0.5c0,0.2,0,0.4,0.1,0.6v0
	c0.1,0.2,0.1,0.3,0.2,0.5c0.1,0.2,0.1,0.4,0.2,0.5c0,0,0,0,0,0c0.1,0.1,0.2,0.3,0.3,0.4c0.1,0.2,0.2,0.3,0.4,0.5l0,0
	c0.1,0.1,0.3,0.2,0.4,0.3c0.2,0.1,0.3,0.3,0.5,0.4c0,0,0,0,0,0c0,0,0,0,0,0l50.2,28.4v50.3L95.2,298V128.4z M296.3,298l-96.2,55.4
	v-50.3l71.2-40.7l25-14.2L296.3,298L296.3,298z M348.8,207.9l-43.7,25.2v-49.8l25.4-14.6l18.4-10.6L348.8,207.9L348.8,207.9z"/>
<g id="letter_x5F_down">
	<path class="st1" d="M288.3,287.9h-0.1c-0.6,2.6-1.4,5.3-2.2,7.9l-4.3,12.7h13.2l-4.3-12.6C289.6,293,289,290.4,288.3,287.9z"/>
	<path class="st1" d="M334.7,279.8H329h-0.1c-3.3-6.6-6.6-13.2-9.9-19.8c-3.2,6.6-6.5,13.2-9.7,19.8h-66c-2.4,0-4.3,1.9-4.3,4.3
		v41.4c0,2.4,1.9,4.3,4.3,4.3h91.4c2.4,0,4.3-1.9,4.3-4.3v-41.4C339,281.7,337.1,279.8,334.7,279.8z M300.7,326.6l-4.7-13.8h-15.5
		l-4.5,13.8h-5.8l14.9-43.8h6.8l14.9,43.8H300.7z"/>
</g>
<path id="letter_x5F_up" class="st1" d="M299.7,214h-91.4c-2.4,0-4.3,1.9-4.3,4.3v41.4c0,2.4,1.9,4.3,4.3,4.3h5.7h0.1
	c3.3,6.6,6.6,13.2,9.9,19.8c3.2-6.6,6.5-13.2,9.7-19.8h66c2.4,0,4.3-1.9,4.3-4.3v-41.4C304,215.9,302.1,214,299.7,214z M273,229.9
	c-2.3,0-4.6,0-6.9,0.1c-0.5,2-1.4,4.5-2.8,7.2c-1.9,3.7-4.2,6.3-6,8.1c2.1,1.8,4.1,3.7,6.2,5.5c-0.7,1.6-1.5,3.1-2.2,4.7
	c-2.4-2.3-4.8-4.6-7.2-6.9c-3.9,3.7-7.7,7.4-11.6,11.2c-0.9-1-1.8-2.1-2.8-3.1c3.8-3.8,7.7-7.5,11.5-11.3c-1.2-1.4-2.6-3.1-3.9-4.9
	c-1.4-2-2.6-4-3.6-5.8c1.7,0,3.3,0,5,0c1.7,2.4,3.5,4.8,5.2,7.2c1.5-1.5,3.4-3.8,5-6.9c0.9-1.8,1.5-3.5,2-4.9h-25.9v-5.6H252v-4.2
	h4.9v4.2H273V229.9z"/>
</svg>
